<svg xmlns="http://www.w3.org/2000/svg" xmlns:xlink="http://www.w3.org/1999/xlink" width="300" zoomAndPan="magnify" viewBox="0 0 224.87999 225" height="300" preserveAspectRatio="xMidYMid meet" version="1.0"><defs><clipPath id="96379309bc"><path d="M 48 57 L 177.945312 57 L 177.945312 168.273438 L 48 168.273438 Z M 48 57 " clip-rule="nonzero"/></clipPath></defs><g clip-path="url(#96379309bc)"><path fill="#232323" d="M 57.828125 113.636719 C 54.058594 113.515625 50.601562 115.671875 49.023438 119.0625 C 47.515625 122.394531 48.101562 126.097656 49.800781 129.230469 C 51.90625 133.199219 55.609375 135.945312 59.628906 137.808594 C 64.757812 140.109375 70.253906 141.421875 75.769531 142.429688 C 72.085938 142.578125 67.753906 142.238281 64.332031 143.695312 C 61.695312 144.773438 59.738281 147.171875 59.402344 150.007812 C 58.917969 153.574219 61.074219 157.320312 63.703125 159.609375 C 67.339844 162.78125 72.40625 164.589844 77.058594 165.675781 C 82.453125 167.019531 88.257812 166.738281 93.773438 166.300781 C 97.503906 166.054688 100.878906 164.738281 104.640625 164.855469 C 112.488281 164.527344 119.113281 167.851562 126.882812 167.613281 C 131.9375 167.382812 136.617188 165.628906 140.890625 163.003906 C 143.550781 166.09375 147.375 167.988281 151.480469 168.085938 C 155.9375 168.273438 160.140625 166.535156 163.664062 163.929688 C 168.636719 160.144531 172.121094 154.992188 174.445312 149.25 C 176.960938 142.945312 177.933594 136.066406 176.980469 129.332031 C 176.148438 123.890625 173.953125 118.554688 169.707031 114.871094 C 167.96875 113.28125 165.882812 112.304688 163.636719 111.640625 C 162.710938 108.019531 160.882812 104.832031 158.730469 101.800781 C 156.078125 98.203125 152.699219 95.695312 149.554688 92.59375 C 146.046875 89.125 142.519531 85.609375 140.136719 81.261719 C 137.097656 76.925781 135.164062 72.125 132.710938 67.480469 C 130.941406 64.476562 129.101562 60.9375 126.109375 58.996094 C 123.113281 57.027344 119.195312 56.589844 115.929688 58.175781 C 112.746094 59.675781 110.800781 62.929688 109.890625 66.203125 C 108.472656 71.421875 109.230469 77.039062 110.859375 82.121094 C 111.613281 84.667969 112.851562 86.964844 114.089844 89.300781 C 109.285156 85.8125 104.617188 82.15625 100.320312 78.066406 C 94.476562 72.972656 89.753906 67.71875 83.375 63.394531 C 80.261719 61.378906 76.394531 60.640625 73.011719 62.511719 C 70.445312 63.933594 68.746094 66.589844 68.453125 69.484375 C 68.003906 73.800781 69.480469 77.917969 71.789062 81.507812 C 74.441406 85.765625 77.929688 89.09375 81.441406 92.617188 C 76.085938 89.910156 70.546875 86.109375 64.808594 84.269531 C 61.121094 83.078125 56.773438 82.878906 53.265625 84.734375 C 50.277344 86.367188 48.789062 89.671875 49.019531 92.988281 C 49.289062 97.511719 52.074219 101.46875 55.441406 104.34375 C 63.039062 111.105469 73.300781 115.160156 82.496094 119.316406 C 77.882812 118.414062 73.304688 117.269531 68.769531 116.042969 C 65.234375 115.109375 61.488281 113.808594 57.828125 113.636719 Z M 57.828125 113.636719 " fill-opacity="1" fill-rule="nonzero"/></g><path fill="#ababab" d="M 91.398438 142.335938 C 93.820312 142.828125 96.066406 142.867188 98.199219 143.984375 C 94.554688 145.125 90.480469 145.199219 86.6875 145.441406 C 81.964844 145.542969 77.246094 145.699219 72.53125 145.96875 C 70.179688 146.15625 67.066406 146.269531 65.160156 147.796875 C 64.027344 148.683594 63.78125 149.925781 63.699219 151.285156 C 64.300781 154.230469 66.25 156.375 68.820312 157.8125 C 74.453125 160.949219 81.207031 162.332031 87.625 162.261719 C 92.207031 162.335938 96.773438 162.027344 101.332031 161.59375 C 104.742188 161.449219 107.988281 160.941406 111.285156 161.304688 C 117.183594 161.753906 123.011719 163.746094 128.953125 162.742188 C 132.746094 162.019531 136.71875 160.496094 139.609375 157.882812 C 142.554688 155.042969 144.65625 151.300781 145.523438 147.304688 C 146.175781 144.542969 146.039062 141.839844 146.460938 139.042969 C 148.523438 141.992188 148.972656 146.089844 148.570312 149.574219 C 148.097656 153.523438 146.347656 156.964844 144.117188 160.207031 C 146.402344 161.730469 148.625 163.050781 151.464844 163.136719 C 156.207031 163.261719 160.421875 160.566406 163.5625 157.253906 C 168.316406 152.199219 171.144531 145.253906 171.957031 138.433594 C 172.480469 133.167969 172.101562 127.789062 169.488281 123.070312 C 168.367188 120.683594 166.515625 118.882812 164.34375 117.421875 C 163.773438 121.082031 163.371094 124.429688 161.070312 127.507812 C 160.058594 128.898438 158.6875 129.933594 157.171875 130.722656 C 159.152344 125.476562 160.503906 120.324219 159.488281 114.679688 C 158.792969 111.078125 156.957031 108.148438 154.804688 105.242188 C 151.875 101.390625 147.769531 98.503906 144.449219 94.847656 C 140.675781 90.933594 137.570312 86.523438 134.796875 81.867188 C 130.992188 76.292969 129.082031 70.152344 124.992188 64.804688 C 123.878906 63.386719 122.460938 62.605469 120.691406 62.28125 C 119.203125 62.289062 117.828125 62.597656 116.792969 63.730469 C 114.621094 66.058594 114.035156 69.757812 114.035156 72.816406 C 114.28125 79.511719 116.667969 86.164062 121.085938 91.269531 C 123.082031 93.671875 125.390625 96.0625 126.425781 99.0625 C 126.8125 100.253906 127.410156 101.601562 127.234375 102.855469 C 127.007812 104.800781 126.46875 106.695312 126.199219 108.632812 C 125.152344 115.839844 125.378906 123.101562 128.261719 129.886719 C 125.136719 126.632812 123.199219 122.511719 122.371094 118.113281 C 121.074219 112.425781 121.515625 106.628906 123.292969 101.101562 C 117.90625 98.445312 113.128906 94.371094 108.257812 90.855469 C 102.160156 86.460938 96.753906 81.34375 91.199219 76.308594 C 88.199219 73.308594 85.015625 70.523438 81.644531 67.941406 C 80.285156 66.933594 78.515625 65.945312 76.761719 66.125 C 75.425781 66.320312 74.542969 67.128906 73.632812 68.046875 C 72.183594 71.511719 73.027344 75.011719 74.589844 78.253906 C 76.804688 82.675781 80.460938 86.632812 83.878906 90.175781 C 90.667969 96.984375 98.410156 102.367188 106.070312 108.09375 C 105.71875 108.554688 105.371094 109.015625 105.015625 109.476562 C 102.960938 108.476562 101 107.316406 99.074219 106.085938 C 97.894531 105.222656 96.691406 104.371094 95.453125 103.589844 C 93.28125 102.214844 90.875 101.320312 88.640625 100.015625 C 83.046875 96.683594 76.878906 94.003906 70.921875 91.300781 C 66.652344 89.488281 62.414062 87.492188 57.648438 88.15625 C 56.269531 88.546875 54.855469 88.929688 54.128906 90.273438 C 52.925781 92.476562 53.589844 95.039062 54.648438 97.152344 C 56.359375 100.535156 59.808594 103.238281 62.789062 105.5 C 68.390625 109.535156 74.671875 112.699219 80.851562 115.761719 C 84.589844 117.5625 88.296875 119.394531 92.128906 121.003906 C 94.527344 122.042969 96.921875 122.882812 99.203125 124.1875 C 96.488281 125.675781 92.453125 124.695312 89.484375 124.453125 C 80.261719 122.96875 71.085938 121.253906 62.019531 119.015625 C 59.476562 118.53125 56.398438 117.753906 54.28125 119.730469 C 53.523438 120.75 52.921875 121.800781 52.90625 123.109375 C 52.855469 126.023438 54.601562 128.902344 56.683594 130.855469 C 59.675781 133.65625 63.859375 135.40625 67.683594 136.804688 C 75.480469 139.628906 83.246094 140.832031 91.398438 142.335938 Z M 106.132812 112.371094 C 107.515625 109.96875 109.414062 107.230469 112.371094 106.738281 C 110.738281 109.054688 109.433594 111.542969 108.433594 114.195312 C 106.027344 120.78125 104.773438 127.878906 104.40625 134.867188 C 104.28125 137.6875 103.9375 140.417969 104.253906 143.238281 C 104.238281 143.984375 104.203125 144.722656 104.148438 145.464844 C 102.507812 141.875 101.828125 137.855469 101.605469 133.945312 C 101.25 126.609375 102.632812 118.890625 106.132812 112.371094 Z M 106.132812 112.371094 " fill-opacity="1" fill-rule="nonzero"/><path fill="#ffffff" d="M 95.519531 94.585938 C 98.660156 96.523438 101.652344 98.394531 105.191406 99.566406 C 108.632812 100.808594 112.285156 100.863281 115.738281 102.085938 C 114.800781 103.777344 113.566406 105.226562 112.371094 106.738281 C 110.738281 109.054688 109.433594 111.542969 108.433594 114.195312 C 106.027344 120.78125 104.773438 127.878906 104.40625 134.867188 C 104.28125 137.6875 103.9375 140.417969 104.253906 143.238281 C 104.605469 145.761719 104.785156 148.082031 106.179688 150.285156 C 108.605469 154.304688 113.476562 156.617188 118.03125 157.148438 C 122.316406 157.480469 126.4375 157.472656 130.492188 155.871094 C 134.90625 154.242188 138.671875 151.257812 140.175781 146.691406 C 141.648438 141.8125 141.246094 136.738281 140.234375 131.820312 C 142.863281 133.804688 144.585938 136.398438 146.460938 139.042969 C 148.523438 141.992188 148.972656 146.089844 148.570312 149.574219 C 150.421875 150.058594 152.171875 150.488281 154.101562 150.183594 C 157.757812 149.621094 160.867188 147.449219 163.203125 144.675781 C 165.703125 141.691406 167.917969 138.152344 168.957031 134.390625 C 169.972656 130.867188 169.394531 126.792969 169.488281 123.070312 C 168.367188 120.683594 166.515625 118.882812 164.34375 117.421875 C 163.773438 121.082031 163.371094 124.429688 161.070312 127.507812 C 160.058594 128.898438 158.6875 129.933594 157.171875 130.722656 C 154.730469 131.867188 152.390625 132.867188 149.613281 132.542969 C 147.660156 132.367188 146.113281 131.433594 144.523438 130.378906 C 146.605469 129.328125 148.792969 128.546875 150.242188 126.621094 C 152.625 123.480469 153.007812 119.140625 152.125 115.40625 C 151.203125 111.6875 148.925781 108.855469 146.339844 106.128906 C 143.9375 103.648438 141.859375 100.886719 139.488281 98.371094 C 137.488281 96.226562 135.460938 94.21875 133.828125 91.765625 C 129.230469 85.253906 127.214844 76.433594 124.59375 68.96875 C 123.699219 66.472656 122.171875 64.445312 120.691406 62.28125 C 119.203125 62.289062 117.828125 62.597656 116.792969 63.730469 C 114.621094 66.058594 114.035156 69.757812 114.035156 72.816406 C 114.28125 79.511719 116.667969 86.164062 121.085938 91.269531 C 123.082031 93.671875 125.390625 96.0625 126.425781 99.0625 C 126.8125 100.253906 127.410156 101.601562 127.234375 102.855469 C 127.007812 104.800781 126.46875 106.695312 126.199219 108.632812 C 125.152344 115.839844 125.378906 123.101562 128.261719 129.886719 C 125.136719 126.632812 123.199219 122.511719 122.371094 118.113281 C 121.074219 112.425781 121.515625 106.628906 123.292969 101.101562 C 117.90625 98.445312 113.128906 94.371094 108.257812 90.855469 C 102.160156 86.460938 96.753906 81.34375 91.199219 76.308594 C 88.199219 73.308594 85.015625 70.523438 81.644531 67.941406 C 80.285156 66.933594 78.515625 65.945312 76.761719 66.125 C 75.425781 66.320312 74.542969 67.128906 73.632812 68.046875 C 74.125 72.210938 76.199219 75.617188 78.664062 78.902344 C 83.378906 85.046875 88.921875 90.46875 95.519531 94.585938 Z M 121.667969 127.957031 C 122.328125 128.960938 122.925781 129.988281 123.519531 131.027344 C 120.347656 132.828125 117.339844 134.820312 114.71875 137.367188 C 113.058594 138.960938 111.742188 140.734375 110.21875 142.445312 C 110.671875 139.820312 111.550781 137.433594 112.988281 135.183594 C 115.132812 131.847656 117.609375 128.914062 121.667969 127.957031 Z M 121.667969 127.957031 " fill-opacity="1" fill-rule="nonzero"/><path fill="#ffffff" d="M 56.832031 93.570312 C 59.03125 97.238281 63.511719 99.589844 67.136719 101.644531 C 74.867188 105.894531 82.96875 109.652344 91.390625 112.324219 C 94.460938 113.269531 97.542969 114.066406 100.777344 114.199219 C 101.351562 111.125 100.59375 108.726562 99.074219 106.085938 C 97.894531 105.222656 96.691406 104.371094 95.453125 103.589844 C 93.28125 102.214844 90.875 101.320312 88.640625 100.015625 C 83.046875 96.683594 76.878906 94.003906 70.921875 91.300781 C 66.652344 89.488281 62.414062 87.492188 57.648438 88.15625 C 56.890625 89.96875 55.613281 91.625 56.832031 93.570312 Z M 56.832031 93.570312 " fill-opacity="1" fill-rule="nonzero"/><path fill="#ffffff" d="M 64.152344 130.007812 C 68.738281 132.039062 73.488281 133.191406 78.375 134.214844 C 83.597656 135.269531 88.953125 135.867188 94.285156 135.800781 C 95.207031 135.714844 96.585938 135.824219 97.121094 134.902344 C 98.234375 133.253906 97.605469 131.253906 96.585938 129.734375 C 94.953125 127.371094 91.984375 125.765625 89.484375 124.453125 C 80.261719 122.96875 71.085938 121.253906 62.019531 119.015625 C 59.476562 118.53125 56.398438 117.753906 54.28125 119.730469 C 54.824219 121.855469 55.195312 123.953125 56.742188 125.617188 C 58.640625 127.652344 61.644531 128.882812 64.152344 130.007812 Z M 64.152344 130.007812 " fill-opacity="1" fill-rule="nonzero"/><path fill="#ffffff" d="M 93.621094 158.582031 C 95.996094 158.375 98.46875 158.367188 100.796875 157.828125 C 101.875 157.757812 101.964844 156.296875 102.070312 155.472656 C 102.128906 152.757812 100.121094 150.089844 98.066406 148.480469 C 94.734375 145.886719 90.804688 145.375 86.6875 145.441406 C 81.964844 145.542969 77.246094 145.699219 72.53125 145.96875 C 70.179688 146.15625 67.066406 146.269531 65.160156 147.796875 C 64.027344 148.683594 63.78125 149.925781 63.699219 151.285156 C 65.914062 153.089844 68.070312 154.835938 70.769531 155.882812 C 78.054688 159.058594 85.828125 159.015625 93.621094 158.582031 Z M 93.621094 158.582031 " fill-opacity="1" fill-rule="nonzero"/></svg>