<svg xmlns="http://www.w3.org/2000/svg" xmlns:xlink="http://www.w3.org/1999/xlink" width="300" zoomAndPan="magnify" viewBox="0 0 224.87999 225" height="300" preserveAspectRatio="xMidYMid meet" version="1.0"><defs><clipPath id="209ce5cb19"><path d="M 60 65.507812 L 164.878906 65.507812 L 164.878906 159 L 60 159 Z M 60 65.507812 " clip-rule="nonzero"/></clipPath></defs><g clip-path="url(#209ce5cb19)"><path fill="#232323" d="M 63.585938 125.597656 C 64.355469 128.078125 65.804688 130.085938 67.917969 131.59375 C 69.261719 132.636719 70.890625 133.289062 72.183594 134.375 C 71.859375 139.160156 73.378906 143.757812 75.925781 147.765625 C 77.441406 150.105469 79.65625 151.878906 82.355469 152.667969 C 86.941406 154.070312 91.429688 153.515625 96.007812 153.332031 C 99.941406 156.074219 104.210938 157.804688 109.019531 158.203125 C 115.953125 159.167969 123.03125 157.136719 128.398438 152.671875 C 130.878906 154.914062 133.792969 156.453125 137.195312 156.546875 C 142.203125 156.886719 146.730469 154.765625 150.527344 151.664062 C 156.378906 146.785156 160.359375 139.71875 162.457031 132.472656 C 164.507812 125.351562 164.898438 117.347656 162.441406 110.285156 C 160.832031 105.5625 157.546875 101.074219 152.816406 99.132812 C 151.445312 98.5 149.78125 98.464844 148.5 97.726562 C 147.132812 91.835938 144.496094 86.355469 140.800781 81.5625 C 136.679688 76.285156 130.464844 72.644531 123.847656 71.574219 C 118.949219 70.75 114.089844 71.746094 109.667969 73.882812 C 104 68.878906 96.574219 66.871094 89.234375 65.871094 C 85.730469 65.527344 81.574219 65.640625 78.4375 67.421875 C 74.824219 69.292969 72.226562 73.03125 71.273438 76.925781 C 70.601562 80.066406 71.40625 82.964844 72.976562 85.679688 C 70.953125 85.78125 69.105469 85.785156 67.335938 86.914062 C 63.941406 88.980469 61.898438 93.082031 61.054688 96.839844 C 59.945312 101.945312 60.691406 108.085938 63.960938 112.308594 C 62.71875 116.507812 62.246094 121.378906 63.585938 125.597656 Z M 63.585938 125.597656 " fill-opacity="1" fill-rule="nonzero"/></g><path fill="#ababab" d="M 81.410156 87.070312 C 86.355469 90.039062 91.707031 92.382812 97.050781 94.527344 C 97.722656 92.082031 98.359375 89.644531 99.175781 87.242188 C 100.023438 84.753906 101.09375 82.351562 102.59375 80.183594 C 103.550781 78.777344 104.894531 77.554688 106.078125 76.316406 C 101.757812 73.320312 96.960938 71.945312 91.90625 70.703125 C 89.046875 70.007812 86.097656 69.816406 83.1875 70.269531 C 81.160156 70.617188 79.488281 71.746094 78.105469 73.222656 C 76.539062 75.257812 75.175781 77.816406 75.734375 80.460938 C 76.339844 83.5 78.914062 85.519531 81.410156 87.070312 Z M 81.410156 87.070312 " fill-opacity="1" fill-rule="nonzero"/><path fill="#ababab" d="M 74.328125 113.828125 C 81.195312 116.144531 88.890625 117.394531 96.011719 115.542969 C 95.023438 113.1875 94.484375 110.792969 94.179688 108.261719 C 94.132812 104.367188 95.546875 100.246094 96.492188 96.484375 C 91.273438 95.113281 85.96875 93.605469 81.050781 91.375 C 79.246094 90.582031 77.84375 89.488281 75.871094 89.285156 C 73.878906 89.046875 71.308594 88.996094 69.558594 90.125 C 67.136719 91.804688 66.148438 94.78125 65.414062 97.5 C 64.957031 100.871094 64.984375 104.792969 66.425781 107.941406 C 67.921875 110.988281 71.25 112.746094 74.328125 113.828125 Z M 74.328125 113.828125 " fill-opacity="1" fill-rule="nonzero"/><path fill="#ababab" d="M 150.304688 103.40625 C 150.859375 110.5 148.753906 117.566406 143.824219 122.792969 C 144.566406 120.066406 145.722656 117.5625 146.097656 114.730469 C 147.085938 108.082031 145.503906 101.035156 142.652344 95.007812 C 140.320312 90.425781 137.710938 85.574219 133.785156 82.152344 C 130.371094 79.15625 125.949219 77.148438 121.402344 76.757812 C 116.492188 76.40625 111.5 78.148438 108.066406 81.703125 C 104.652344 85.316406 103.503906 90.433594 102.167969 95.070312 C 101.027344 99.398438 99.363281 103.871094 98.902344 108.316406 C 98.75 110.367188 99.199219 112.257812 100.507812 113.867188 C 101.953125 115.8125 104.261719 116.40625 106.578125 116.402344 C 109.273438 116.382812 111.683594 115.128906 113.769531 113.527344 C 117.332031 110.738281 120.128906 107.050781 121.898438 102.894531 C 123.359375 99.695312 123.964844 96.390625 124.796875 93.003906 C 125.207031 95.710938 125.25 98.410156 124.539062 101.078125 C 123.253906 106.109375 122.539062 111.46875 122.949219 116.652344 C 123.226562 120.148438 124.207031 123.371094 124.757812 126.761719 C 123.097656 125.296875 121.464844 124.125 120.441406 122.085938 C 119.277344 119.882812 119.066406 117.582031 118.890625 115.140625 C 117.015625 117.023438 114.992188 118.613281 112.515625 119.640625 C 110.671875 120.277344 108.761719 120.59375 106.832031 120.839844 C 106.664062 123.558594 106.160156 125.988281 104.894531 128.417969 C 106.75 131.253906 108.203125 134.542969 108.699219 137.910156 C 109.140625 140.8125 107.71875 143.542969 106.207031 145.921875 C 104.878906 148.015625 103.058594 149.460938 101.195312 151.042969 C 105.554688 152.976562 110.226562 153.976562 115 153.742188 C 119.402344 153.347656 124 151.714844 127.308594 148.710938 C 130.351562 145.898438 132.496094 142.574219 134.730469 139.132812 C 134.914062 143.105469 133.300781 146.378906 131.265625 149.660156 C 133.664062 150.894531 135.890625 151.996094 138.691406 151.710938 C 143.523438 151.289062 147.976562 147.84375 150.945312 144.199219 C 153.734375 140.753906 155.898438 136.816406 157.144531 132.550781 C 159.433594 126.285156 160.007812 119.050781 158.09375 112.617188 C 156.867188 108.542969 154.371094 105.019531 150.304688 103.40625 Z M 150.304688 103.40625 " fill-opacity="1" fill-rule="nonzero"/><path fill="#ababab" d="M 94.28125 120.371094 C 86.917969 121.6875 79.300781 120.410156 72.347656 117.84375 C 70.65625 117.222656 69.140625 116.285156 67.5 115.566406 C 66.925781 117.394531 66.894531 119.242188 67.007812 121.136719 C 67.289062 123.515625 67.671875 125.824219 69.496094 127.546875 C 71.792969 129.691406 74.957031 131.0625 77.945312 131.921875 C 81.640625 132.96875 85.460938 133.800781 89.292969 134.070312 C 92.417969 134.320312 94.953125 132.386719 97.359375 130.6875 C 99.0625 129.410156 101.0625 127.921875 102.101562 126.027344 C 103.039062 124.332031 102.980469 122.34375 103.054688 120.464844 C 101.601562 120.015625 100.179688 119.339844 98.691406 119.046875 C 97.191406 119.386719 95.769531 119.996094 94.28125 120.371094 Z M 94.28125 120.371094 " fill-opacity="1" fill-rule="nonzero"/><path fill="#ababab" d="M 84.980469 137.5625 C 82.074219 137.234375 79.316406 136.414062 76.472656 135.792969 C 76.734375 137.972656 77.304688 140.003906 78.160156 142.019531 C 79.148438 144.414062 80.382812 147.113281 82.976562 148.105469 C 85.675781 149.121094 88.914062 149.058594 91.769531 149.007812 C 95.960938 148.839844 100.015625 147.191406 102.59375 143.796875 C 103.761719 142.21875 105.160156 140.101562 104.867188 138.050781 C 104.582031 135.660156 103.574219 133.273438 102.519531 131.125 C 99.808594 133.039062 97.425781 135.15625 94.433594 136.730469 C 91.339844 138.285156 88.300781 137.898438 84.980469 137.5625 Z M 84.980469 137.5625 " fill-opacity="1" fill-rule="nonzero"/><path fill="#ffffff" d="M 99.175781 87.242188 C 100.023438 84.753906 101.09375 82.351562 102.59375 80.183594 C 103.546875 78.777344 104.894531 77.554688 106.078125 76.316406 C 101.757812 73.320312 96.960938 71.945312 91.90625 70.703125 C 89.046875 70.007812 86.097656 69.816406 83.1875 70.269531 C 81.160156 70.617188 79.488281 71.746094 78.105469 73.222656 C 78.460938 74.921875 78.570312 76.460938 79.875 77.746094 C 85.367188 82.964844 92.007812 85.296875 99.175781 87.242188 Z M 99.175781 87.242188 " fill-opacity="1" fill-rule="nonzero"/><path fill="#ffffff" d="M 98.902344 108.316406 C 100.464844 109.625 101.972656 111.179688 104.113281 111.398438 C 107.128906 111.679688 109.71875 110.152344 111.738281 108.050781 C 114.347656 105.285156 116.363281 101.90625 117.957031 98.46875 C 119.257812 95.691406 119.972656 92.765625 121.011719 89.902344 C 123.433594 89.773438 125.59375 90.324219 126.734375 92.636719 C 129.585938 98.625 127.933594 106.785156 130.703125 112.84375 C 131.902344 115.53125 133.933594 117.78125 136.886719 118.507812 C 140.425781 119.414062 144.1875 117.789062 146.097656 114.730469 C 147.085938 108.082031 145.503906 101.035156 142.652344 95.007812 C 140.320312 90.425781 137.710938 85.574219 133.785156 82.152344 C 130.371094 79.15625 125.949219 77.148438 121.402344 76.757812 C 116.492188 76.40625 111.5 78.148438 108.066406 81.703125 C 104.652344 85.316406 103.503906 90.433594 102.167969 95.070312 C 101.027344 99.398438 99.363281 103.871094 98.902344 108.316406 Z M 98.902344 108.316406 " fill-opacity="1" fill-rule="nonzero"/><path fill="#ffffff" d="M 71.414062 103.9375 C 78.703125 107.132812 86.273438 108.148438 94.179688 108.261719 C 94.132812 104.367188 95.546875 100.246094 96.492188 96.484375 C 91.273438 95.113281 85.96875 93.605469 81.050781 91.375 C 79.246094 90.582031 77.84375 89.488281 75.871094 89.285156 C 73.878906 89.046875 71.308594 88.996094 69.558594 90.125 C 67.136719 91.804688 66.148438 94.78125 65.414062 97.5 C 66.589844 100.683594 68.359375 102.492188 71.414062 103.9375 Z M 71.414062 103.9375 " fill-opacity="1" fill-rule="nonzero"/><path fill="#ffffff" d="M 131.722656 129.796875 C 128.949219 129.886719 126.730469 128.582031 124.757812 126.761719 C 123.097656 125.296875 121.464844 124.125 120.441406 122.085938 C 119.277344 119.882812 119.066406 117.582031 118.890625 115.140625 C 117.015625 117.023438 114.992188 118.613281 112.515625 119.640625 C 111.089844 122.996094 109.71875 126.042969 110.261719 129.804688 C 110.933594 136.597656 117.730469 141.601562 124.367188 141.300781 C 128.9375 141.265625 132.84375 139.039062 135.679688 135.546875 C 136.664062 137.785156 137.527344 139.988281 139.742188 141.300781 C 142.519531 142.902344 145.855469 142.269531 148.554688 140.832031 C 152.265625 138.925781 154.546875 135.691406 157.144531 132.550781 C 159.433594 126.285156 160.007812 119.050781 158.09375 112.617188 C 156.867188 108.542969 154.371094 105.019531 150.304688 103.40625 C 150.859375 110.5 148.753906 117.566406 143.824219 122.792969 C 140.796875 126.324219 136.609375 129.746094 131.722656 129.796875 Z M 131.722656 129.796875 " fill-opacity="1" fill-rule="nonzero"/><path fill="#ffffff" d="M 91.226562 126.03125 C 93.15625 124.597656 93.6875 122.574219 94.28125 120.371094 C 86.917969 121.6875 79.300781 120.410156 72.347656 117.84375 C 70.65625 117.222656 69.140625 116.285156 67.5 115.566406 C 66.925781 117.394531 66.894531 119.242188 67.007812 121.136719 C 71.304688 125.3125 76.769531 128.039062 82.84375 128.121094 C 85.609375 128.121094 88.933594 127.699219 91.226562 126.03125 Z M 91.226562 126.03125 " fill-opacity="1" fill-rule="nonzero"/><path fill="#ffffff" d="M 86.824219 143.96875 C 89.410156 143.875 92.671875 143.140625 94.238281 140.882812 C 95.152344 139.609375 94.632812 138.140625 94.433594 136.730469 C 91.339844 138.285156 88.300781 137.898438 84.980469 137.5625 C 82.074219 137.234375 79.316406 136.414062 76.472656 135.792969 C 76.734375 137.972656 77.304688 140.003906 78.160156 142.019531 C 81.011719 143.109375 83.695312 144.140625 86.824219 143.96875 Z M 86.824219 143.96875 " fill-opacity="1" fill-rule="nonzero"/></svg>