<svg xmlns="http://www.w3.org/2000/svg" xmlns:xlink="http://www.w3.org/1999/xlink" width="300" zoomAndPan="magnify" viewBox="0 0 224.87999 225" height="300" preserveAspectRatio="xMidYMid meet" version="1.0"><defs><clipPath id="b829a8f180"><path d="M 55.324219 67.378906 L 169 67.378906 L 169 157.328125 L 55.324219 157.328125 Z M 55.324219 67.378906 " clip-rule="nonzero"/></clipPath></defs><g clip-path="url(#b829a8f180)"><path fill="#232323" d="M 60.335938 109.984375 C 62.421875 112.25 64.957031 113.707031 67.695312 115.039062 C 74.683594 118.421875 82.15625 120.765625 89.871094 121.703125 C 88.71875 125.125 88.695312 129.1875 90.214844 132.5 C 91.449219 135.164062 93.945312 136.640625 96.460938 137.902344 C 96.125 141.632812 97.300781 145.167969 99.195312 148.335938 C 100.398438 150.277344 102.164062 151.808594 104.378906 152.464844 C 107.839844 153.5625 111.621094 153.183594 115.113281 152.980469 C 117.40625 154.515625 119.789062 155.808594 122.519531 156.382812 C 125.695312 157.027344 129.226562 157.324219 132.394531 156.542969 C 135.390625 155.8125 138.210938 154.484375 140.570312 152.488281 C 142.519531 154.203125 144.75 155.433594 147.398438 155.53125 C 151.339844 155.824219 154.921875 154.175781 157.90625 151.734375 C 162.503906 147.90625 165.644531 142.402344 167.296875 136.699219 C 168.847656 131.351562 169.207031 125.324219 167.582031 119.953125 C 166.476562 116.320312 164.378906 112.921875 161.019531 110.980469 C 159.570312 110.125 157.992188 109.761719 156.351562 109.464844 C 155.59375 105.425781 153.851562 101.710938 151.589844 98.292969 C 148.960938 94.273438 145.105469 91.140625 140.539062 89.582031 C 136.394531 88.070312 131.773438 88.089844 127.667969 89.726562 C 126.097656 90.359375 124.753906 91.246094 123.339844 92.164062 C 121.605469 91.039062 119.746094 90.226562 117.917969 89.285156 C 111.21875 85.917969 104.863281 81.757812 98.8125 77.347656 C 95.820312 75.132812 92.738281 73.054688 89.640625 70.996094 C 87.214844 69.179688 84.511719 67.871094 81.445312 67.671875 C 77.921875 67.371094 74.335938 68.617188 71.902344 71.207031 C 69.472656 73.726562 68.441406 77.296875 68.960938 80.742188 C 69.304688 82.730469 69.773438 84.824219 71.152344 86.371094 C 73.300781 88.777344 75.730469 90.886719 78.359375 92.742188 C 79.886719 93.84375 81.515625 94.796875 83.027344 95.914062 C 78.609375 94.304688 74.449219 91.964844 70.128906 90.109375 C 67.8125 89.1875 65.34375 88.777344 62.882812 89.34375 C 60.507812 89.789062 58.402344 91.257812 57.183594 93.34375 C 55.808594 95.695312 55.390625 98.621094 55.855469 101.285156 C 56.46875 104.550781 58.050781 107.578125 60.335938 109.984375 Z M 60.335938 109.984375 " fill-opacity="1" fill-rule="nonzero"/></g><path fill="#ababab" d="M 67.65625 110.417969 C 74.179688 113.84375 81.199219 116.257812 88.449219 117.574219 C 93.355469 118.660156 98.355469 119.019531 103.285156 119.910156 C 100.21875 120.390625 97.539062 119.832031 94.636719 121.332031 C 93.652344 122.015625 92.832031 122.917969 92.515625 124.101562 C 92.195312 126.644531 92.195312 129.867188 93.753906 132.046875 C 95.183594 133.875 97.632812 135.007812 99.773438 135.785156 C 103.007812 136.828125 106.390625 137.574219 109.78125 137.851562 C 112.394531 138.066406 114.386719 136.488281 116.382812 135.0625 C 118.207031 133.660156 120.058594 132.289062 120.503906 129.875 C 120.609375 129.113281 120.914062 127.863281 120.449219 127.195312 C 119.429688 126.675781 118.140625 126.378906 117.277344 125.613281 C 116.144531 124.597656 115.34375 123.027344 114.390625 121.878906 C 113.910156 121.054688 112.515625 121.359375 111.707031 121.351562 C 109.605469 121.464844 108.472656 122.746094 106.859375 123.855469 C 107.367188 122.769531 107.964844 121.75 108.816406 120.894531 C 110.101562 119.554688 111.875 118.875 113.585938 118.261719 C 113.617188 117.886719 113.648438 117.511719 113.675781 117.136719 C 113.917969 113.167969 115.417969 109.09375 116.390625 105.230469 C 117.320312 101.628906 118.429688 98.152344 120.550781 95.050781 C 111.96875 91.410156 104.226562 86.460938 96.714844 80.996094 C 92.820312 78.132812 88.84375 75.316406 84.695312 72.832031 C 83.148438 71.871094 81.332031 71.496094 79.527344 71.640625 C 77.722656 71.769531 76.035156 72.347656 74.945312 73.867188 C 72.605469 77.207031 72.816406 81.773438 75.214844 85.027344 C 76.789062 87.128906 79.140625 88.71875 81.257812 90.238281 C 86.101562 93.539062 91.175781 96.589844 96.46875 99.113281 C 100.996094 101.320312 105.710938 103.105469 110.230469 105.3125 C 110.984375 104.222656 111.746094 103.171875 112.765625 102.308594 C 112.511719 105.707031 111.207031 109.09375 109.4375 111.984375 C 109.21875 110.527344 109.414062 109.121094 109.617188 107.675781 C 107.117188 106.941406 104.546875 106.605469 102.023438 105.976562 C 92.566406 103.765625 83.210938 99.910156 74.339844 95.992188 C 72.058594 95.023438 69.953125 93.515625 67.476562 93.460938 C 65.890625 93.367188 64.417969 93.839844 63.074219 94.644531 C 59.433594 96.796875 58.964844 102.265625 61.292969 105.527344 C 62.726562 107.804688 65.375 109.125 67.65625 110.417969 Z M 67.65625 110.417969 " fill-opacity="1" fill-rule="nonzero"/><path fill="#ababab" d="M 158.894531 114.273438 C 158.53125 114.09375 158.160156 113.917969 157.789062 113.746094 C 158.183594 119.148438 156.679688 124.589844 152.992188 128.636719 C 153.441406 126.632812 154.246094 124.769531 154.46875 122.707031 C 155.25 117.34375 154.046875 111.914062 151.75 107.0625 C 149.757812 103.183594 147.625 99.183594 144.140625 96.433594 C 140.792969 93.804688 136.214844 92.160156 131.949219 92.910156 C 128.480469 93.414062 125.082031 95.449219 123.230469 98.457031 C 121.503906 101.214844 120.683594 104.753906 119.792969 107.863281 C 118.886719 111.183594 117.6875 114.597656 117.371094 118.007812 C 117.394531 119.523438 117.8125 120.960938 118.832031 122.109375 C 120.398438 124.070312 123.582031 124.335938 125.804688 123.550781 C 129.0625 122.351562 131.792969 119.503906 133.699219 116.679688 C 135.925781 113.34375 136.78125 109.683594 137.722656 105.855469 C 138.136719 107.925781 138.066406 109.910156 137.539062 111.957031 C 136.421875 116.28125 135.949219 120.726562 136.410156 125.179688 C 136.664062 127.503906 137.488281 129.785156 137.554688 132.113281 C 136.421875 130.929688 135.234375 130.089844 134.445312 128.617188 C 133.449219 126.824219 133.265625 124.964844 133.082031 122.964844 C 131.617188 124.515625 129.960938 125.777344 127.945312 126.523438 C 126.546875 127.03125 125.109375 127.257812 123.644531 127.457031 C 123.515625 129.6875 123.105469 131.421875 122.164062 133.441406 C 123.785156 136.003906 125.285156 139.265625 125.140625 142.347656 C 124.65625 145.867188 122.105469 149.074219 119.285156 151.128906 C 122.472656 152.777344 126.019531 153.382812 129.578125 153.359375 C 133.09375 153.148438 136.78125 151.925781 139.46875 149.59375 C 141.992188 147.339844 143.746094 144.664062 145.519531 141.828125 C 145.738281 144.972656 144.425781 147.5 142.867188 150.105469 C 144.699219 151.074219 146.421875 151.921875 148.566406 151.734375 C 152.367188 151.429688 155.671875 148.886719 158.070312 146.082031 C 160.792969 142.820312 162.816406 138.800781 163.757812 134.65625 C 164.917969 130.625 165.171875 126.214844 164.21875 122.117188 C 163.457031 118.976562 161.859375 115.847656 158.894531 114.273438 Z M 158.894531 114.273438 " fill-opacity="1" fill-rule="nonzero"/><path fill="#ababab" d="M 112.824219 140.375 C 111.007812 141.042969 109.011719 140.839844 107.125 140.675781 C 104.609375 140.433594 102.238281 139.769531 99.789062 139.183594 C 100.058594 140.964844 100.496094 142.6875 101.214844 144.339844 C 101.988281 146.113281 102.929688 148.070312 104.828125 148.863281 C 106.804688 149.652344 109.230469 149.621094 111.332031 149.617188 C 114.679688 149.585938 117.960938 148.421875 120.109375 145.757812 C 121.121094 144.472656 122.332031 142.726562 122.105469 141.003906 C 121.894531 139.105469 121.105469 137.210938 120.230469 135.523438 C 117.773438 137.3125 115.714844 139.253906 112.824219 140.375 Z M 112.824219 140.375 " fill-opacity="1" fill-rule="nonzero"/><path fill="#ffffff" d="M 63.316406 98.863281 C 64.984375 101.988281 68.324219 104.304688 71.40625 105.898438 C 76.390625 108.425781 81.75 110.359375 87.109375 111.925781 C 92.902344 113.625 98.832031 115.074219 104.808594 115.957031 C 107.765625 116.421875 110.738281 116.503906 113.675781 117.136719 C 113.917969 113.167969 115.417969 109.09375 116.390625 105.230469 C 117.320312 101.628906 118.429688 98.152344 120.550781 95.050781 C 111.96875 91.410156 104.226562 86.460938 96.714844 80.996094 C 92.820312 78.132812 88.84375 75.316406 84.695312 72.832031 C 83.148438 71.871094 81.332031 71.496094 79.527344 71.640625 C 78.644531 72.378906 77.273438 73.363281 77.070312 74.558594 C 76.902344 76.191406 77.777344 77.921875 78.675781 79.242188 C 80.964844 82.597656 84.453125 85.273438 87.6875 87.6875 C 92.457031 91.15625 97.570312 94.183594 102.65625 97.167969 C 104.753906 98.339844 106.980469 99.625 109.328125 100.207031 C 111.5 100.703125 113.558594 100.273438 115.707031 99.910156 C 115.242188 101.902344 114.667969 103.847656 113.785156 105.699219 C 112.503906 108.390625 111.421875 110.96875 109.730469 113.421875 C 109.625 112.945312 109.523438 112.46875 109.4375 111.984375 C 109.21875 110.527344 109.414062 109.121094 109.617188 107.675781 C 107.117188 106.941406 104.546875 106.605469 102.023438 105.976562 C 92.566406 103.765625 83.210938 99.910156 74.339844 95.992188 C 72.058594 95.023438 69.953125 93.515625 67.476562 93.460938 C 65.890625 93.367188 64.417969 93.839844 63.074219 94.644531 C 62.929688 96.136719 62.535156 97.464844 63.316406 98.863281 Z M 63.316406 98.863281 " fill-opacity="1" fill-rule="nonzero"/><path fill="#ffffff" d="M 117.371094 118.007812 C 118.882812 119.117188 120.164062 120.257812 122.1875 120.027344 C 125.339844 119.714844 127.453125 117.285156 129.167969 114.863281 C 131.722656 111.3125 133.109375 107.3125 134.359375 103.167969 C 135.421875 103.113281 136.402344 103.058594 137.359375 103.601562 C 138.613281 104.296875 139.140625 105.546875 139.53125 106.855469 C 140.542969 110.402344 140.402344 114.386719 141.011719 117.8125 C 141.449219 120.1875 142.359375 122.648438 144.257812 124.246094 C 145.902344 125.664062 148.238281 126.175781 150.316406 125.523438 C 151.984375 125.015625 153.199219 123.828125 154.46875 122.707031 C 155.25 117.34375 154.046875 111.914062 151.75 107.0625 C 149.757812 103.183594 147.625 99.183594 144.140625 96.433594 C 140.792969 93.804688 136.214844 92.160156 131.949219 92.910156 C 128.480469 93.414062 125.082031 95.449219 123.230469 98.457031 C 121.503906 101.214844 120.683594 104.753906 119.792969 107.863281 C 118.886719 111.183594 117.6875 114.597656 117.371094 118.007812 Z M 117.371094 118.007812 " fill-opacity="1" fill-rule="nonzero"/><path fill="#ffffff" d="M 149.515625 131.707031 C 147.296875 133.605469 144.460938 134.855469 141.5 134.390625 C 139.898438 134.152344 138.632812 133.273438 137.554688 132.113281 C 136.421875 130.929688 135.234375 130.089844 134.445312 128.617188 C 133.449219 126.824219 133.265625 124.964844 133.082031 122.964844 C 131.617188 124.515625 129.960938 125.777344 127.945312 126.523438 C 126.449219 129.011719 125.539062 131.714844 125.996094 134.640625 C 126.589844 140.011719 132.089844 143.902344 137.320312 143.53125 C 140.828125 143.417969 143.757812 141.695312 145.929688 139 C 146.722656 140.839844 147.441406 142.625 149.304688 143.636719 C 151.605469 144.878906 154.332031 144.171875 156.46875 142.933594 C 159.800781 141.003906 161.808594 137.855469 163.757812 134.65625 C 164.917969 130.625 165.171875 126.214844 164.21875 122.117188 C 163.457031 118.976562 161.859375 115.847656 158.894531 114.273438 C 158.53125 114.09375 158.160156 113.917969 157.789062 113.746094 C 158.183594 119.148438 156.679688 124.589844 152.992188 128.636719 C 152.035156 129.828125 150.65625 130.695312 149.515625 131.707031 Z M 149.515625 131.707031 " fill-opacity="1" fill-rule="nonzero"/><path fill="#ffffff" d="M 93.402344 128.921875 C 97.414062 132.363281 103.042969 134.023438 108.242188 132.75 C 109.941406 132.324219 111.589844 131.53125 112.410156 129.894531 C 113.183594 128.402344 112.414062 126.476562 111.039062 125.636719 C 110.101562 125.179688 108.847656 125.269531 107.820312 125.203125 C 105.085938 125.160156 102.355469 124.621094 99.78125 123.699219 C 97.984375 123.0625 96.386719 122.070312 94.636719 121.332031 C 93.652344 122.015625 92.832031 122.917969 92.515625 124.101562 C 92.503906 125.539062 92.085938 127.941406 93.402344 128.921875 Z M 93.402344 128.921875 " fill-opacity="1" fill-rule="nonzero"/><path fill="#ffffff" d="M 107.457031 145.644531 C 109.355469 145.582031 111.640625 145.132812 113 143.691406 C 113.757812 142.921875 113.808594 141.730469 114.003906 140.71875 C 113.609375 140.601562 113.214844 140.488281 112.824219 140.375 C 111.007812 141.042969 109.011719 140.839844 107.125 140.675781 C 104.609375 140.433594 102.238281 139.769531 99.789062 139.183594 C 100.058594 140.964844 100.496094 142.6875 101.214844 144.339844 C 103.265625 145.074219 105.242188 145.738281 107.457031 145.644531 Z M 107.457031 145.644531 " fill-opacity="1" fill-rule="nonzero"/></svg>